<svg xmlns="http://www.w3.org/2000/svg" width="40" height="40" viewBox="0 0 40 40" fill="none">
<path d="M40 20C40 31.0457 31.0457 40 20 40C8.9543 40 0 31.0457 0 20C0 8.9543 8.9543 0 20 0C31.0457 0 40 8.9543 40 20ZM4.03981 20C4.03981 28.8146 11.1854 35.9602 20 35.9602C28.8146 35.9602 35.9602 28.8146 35.9602 20C35.9602 11.1854 28.8146 4.03981 20 4.03981C11.1854 4.03981 4.03981 11.1854 4.03981 20Z" fill="#E7E7E7"/>
<path d="M40 20C40 22.9927 39.3284 25.9473 38.0346 28.6459C36.7409 31.3446 34.858 33.7185 32.5248 35.5926C30.1915 37.4668 27.4675 38.7934 24.5533 39.4748C21.6392 40.1561 18.6093 40.1748 15.687 39.5294L16.5582 35.5847C18.8902 36.0997 21.3081 36.0848 23.6336 35.5411C25.9591 34.9973 28.133 33.9387 29.9949 32.4431C31.8568 30.9475 33.3594 29.0531 34.3918 26.8995C35.4242 24.746 35.9602 22.3882 35.9602 20H40Z" fill="#4E54E1"/>
</svg>