<svg width="168" height="46" viewBox="0 0 168 46" fill="none" xmlns="http://www.w3.org/2000/svg">
<rect width="168" height="46" fill="#F5F5F5"/>
<g id="&#208;&#144;&#208;&#178;&#209;&#130;&#208;&#190;&#209;&#128;&#208;&#184;&#208;&#183;&#208;&#176;&#209;&#134;&#208;&#184;&#209;&#143;">
<rect width="1440" height="1024" transform="translate(-60 -60)" fill="#F9F9FF"/>
<g id="Frame 5">
<path id="Vector" fill-rule="evenodd" clip-rule="evenodd" d="M87.7394 22L78.3392 45.9408H84.0618L86.2701 40.2416L93.9122 40.2418L96.0988 45.8017H101.821L92.2722 22C92.2579 22 87.7394 22 87.7394 22ZM158.176 22.3635C158.176 22.3635 157.066 22.582 156.497 22.8055C154.804 23.686 153.887 25.0183 153.434 25.8971C152.159 28.3688 152.545 31.248 154.414 33.2041C155.048 33.8674 158.322 35.8306 158.322 35.8306C161.478 37.4704 161.302 37.5004 161.809 38.4628C162.162 40.0496 161.414 41.1685 158.906 41.1405C157.399 41.1237 155.235 40.3465 154.047 39.7521L151.844 44.1157C151.844 44.1157 156.424 45.9731 159.344 45.9852C159.344 45.9852 163.002 45.9235 164.255 45.2942C168.943 42.9412 168.814 37.5702 166.15 34.4959L162.162 31.6995C158.322 29.6364 157.961 28.9421 158.906 27.2481C159.851 25.5541 163.289 25.7767 166.94 26.9587V22.9917C166.94 22.9917 159.972 21.8357 158.176 22.3635ZM0 30.5904C0 40.0106 0.159198 41.0601 1.89986 43.1161C2.47005 43.7894 3.68901 44.7137 4.60827 45.1702C6.19032 45.9554 6.49265 46 10.2237 46C13.8602 46 14.2922 45.9404 15.7737 45.2343C17.5609 44.3823 19.0188 43.0168 19.7073 41.5501C20.5441 39.767 20.7396 37.5546 20.7396 29.8657V22.1983H15.1895V30.0476C15.1895 38.8129 15.0274 39.7472 13.3209 40.8133C11.2137 42.13 7.9377 41.8282 6.5759 40.1916C5.41624 38.7987 5.32932 37.6128 5.32786 29.7355V22.1983H0V30.5904ZM25.8514 22.3375V45.7424H31.4014V38.0268L32.4238 37.9783C36.2145 37.7994 38.2858 36.9938 39.9905 35.0359C42.4346 32.229 42.3464 27.298 39.8083 24.8393C37.6569 22.755 34.1378 22.2279 25.8514 22.3375ZM104.574 34.0195V45.7897L110.109 45.8017V45.7897L110.139 37.0744H110.996C112.101 37.0744 112.925 38.03 115.273 42.3778L117.016 45.8017H123.034L117.683 36.2753L117.055 35.0022C117.055 35.0022 119.766 33.0408 120.309 31.9063C121.462 29.4983 120.926 26.0415 119.141 24.3833C118.757 24.0257 117.786 23.4331 116.985 23.0663C115.678 22.4677 109.616 22.1641 104.574 22.1641V34.0195ZM126.774 22.2279V45.8017L132.397 45.7791C138.666 45.612 140.447 45.2316 143.139 43.4855C148.163 40.2259 149.77 33.5671 146.863 28.0528C145.77 25.9786 144.465 24.7731 142.124 23.674C139.727 22.5489 137.438 22.2326 131.667 22.2303L126.774 22.2279ZM34.8781 27.3497C35.9253 28.0434 36.2674 29.5772 35.9633 31.3836C35.7164 32.8499 34.7087 33.4135 32.7527 33.6477L31.2554 33.8272V26.5825L32.6993 26.7228C33.4935 26.7998 34.4738 27.0818 34.8781 27.3497ZM114.549 27.5537C115.696 28.3385 115.634 30.7273 114.689 31.5729C114.689 31.5729 113.768 32.3686 112.28 32.5124H110.109L110.124 26.7603H112.279C113.75 26.7603 114.549 27.5537 114.549 27.5537ZM138.019 27.3807C140.95 28.2722 142.774 31.2389 142.471 34.6192C142.086 38.918 139.27 41.1275 134.176 41.1275H132.032V26.9528H134.323C135.582 26.9528 137.246 27.1453 138.019 27.3807ZM92.1522 35.686H87.811L90.0807 29.2228L92.1522 35.686Z" fill="#282828"/>
<path id="Vector_2" d="M67.3336 15.8311L83.5873 0L87 21.9347L80.4961 17.3603C80.4961 17.3603 70.9234 45.9414 70.9234 46L65.9577 45.9414L61.5321 34.2047L57.1625 45.9414H52.3762L44 22.4606H50.1824L55.1682 37.7612L59.0254 26.68L57.7608 22.4606H63.1089L68.7296 37.565L75.3479 15.8311H67.3336Z" fill="#1218FF"/>
</g>
</g>
</svg>
